# xmcd
#
# Track frame offsets:
#	150
#	24359
#	47594
#	68407
#	92079
#	116937
#	139159
#	159902
#	182142
#	202954
#	225809
#	245694
#
# Disc length: 3580 seconds
#
# Revision: 1
# Processed by: cddbd v1.5.1PL0 Copyright (c) Steve Scherf et al.
# Submitted via: CDex 1.50Beta5
#
DISCID=930dfa0c
DTITLE=稲垣潤一 - Revival
DYEAR=1996
DGENRE=
TTITLE0=思い出のビーチクラブ
TTITLE1=愛のスーパー・マジック
TTITLE2=Congratulations
TTITLE3=P.S.抱きしめたい
TTITLE4=最後のLOVE LETTER
TTITLE5=僕ならばここにいる
TTITLE6=ティック・レイン
TTITLE7=オーシャン・ブルー
TTITLE8=メリークリスマスが言えない
TTITLE9=雨の朝と風の夜に
TTITLE10=言い出せなくて
TTITLE11=時を超えて
EXTD=
EXTT0=
EXTT1=
EXTT2=
EXTT3=
EXTT4=
EXTT5=
EXTT6=
EXTT7=
EXTT8=
EXTT9=
EXTT10=
EXTT11=
PLAYORDER=
